<?xml version="1.0" encoding="UTF-8" standalone="no"?>
<!-- Created with Inkscape (http://www.inkscape.org/) -->

<svg
   xmlns:dc="http://purl.org/dc/elements/1.1/"
   xmlns:cc="http://creativecommons.org/ns#"
   xmlns:rdf="http://www.w3.org/1999/02/22-rdf-syntax-ns#"
   xmlns:svg="http://www.w3.org/2000/svg"
   xmlns="http://www.w3.org/2000/svg"
   xmlns:sodipodi="http://sodipodi.sourceforge.net/DTD/sodipodi-0.dtd"
   xmlns:inkscape="http://www.inkscape.org/namespaces/inkscape"
   width="800"
   height="500"
   viewBox="0 0 211.66666 132.29167"
   version="1.1"
   id="svg8"
   inkscape:version="0.92.4 5da689c313, 2019-01-14"
   sodipodi:docname="alphakit-logo-04.svg">
  <defs
     id="defs2" />
  <sodipodi:namedview
     id="base"
     pagecolor="#ffffff"
     bordercolor="#666666"
     borderopacity="1.0"
     inkscape:pageopacity="0.0"
     inkscape:pageshadow="2"
     inkscape:zoom="1.6652365"
     inkscape:cx="371.01914"
     inkscape:cy="250"
     inkscape:document-units="mm"
     inkscape:current-layer="layer1"
     showgrid="false"
     units="px"
     inkscape:window-width="1920"
     inkscape:window-height="1054"
     inkscape:window-x="0"
     inkscape:window-y="0"
     inkscape:window-maximized="0"
     showguides="true"
     inkscape:guide-bbox="true">
    <sodipodi:guide
       position="84.233016,130.98556"
       orientation="0,1"
       id="guide75072"
       inkscape:locked="false" />
    <sodipodi:guide
       position="100.25728,104.22944"
       orientation="0.95474585,-0.29742288"
       id="guide75074"
       inkscape:locked="false" />
    <sodipodi:guide
       position="44.348578,114.92622"
       orientation="0,1"
       id="guide71319"
       inkscape:locked="false" />
  </sodipodi:namedview>
  <metadata
     id="metadata5">
    <rdf:RDF>
      <cc:Work
         rdf:about="">
        <dc:format>image/svg+xml</dc:format>
        <dc:type
           rdf:resource="http://purl.org/dc/dcmitype/StillImage" />
        <dc:title></dc:title>
      </cc:Work>
    </rdf:RDF>
  </metadata>
  <g
     inkscape:label="alpha Kopie"
     id="g71381"
     inkscape:groupmode="layer"
     sodipodi:insensitive="true">
    <g
       transform="translate(52.916669)"
       id="g71379"
       style="fill:#808080">
      <g
         aria-label="α"
         transform="matrix(0.75180661,-0.09854273,0.09854273,0.75180661,22.902424,-10.940459)"
         style="font-style:normal;font-variant:normal;font-weight:bold;font-stretch:normal;font-size:66.66666412px;line-height:1.25;font-family:sans-serif;-inkscape-font-specification:'sans-serif Bold';letter-spacing:0px;word-spacing:0px;fill:#808080;fill-opacity:1;stroke:none"
         id="g71373">
        <path
           d="m 91.728448,84.866788 7.793412,1.021518 -10.357799,22.197634 c -1.128472,2.47395 -2.126736,4.45963 -2.994791,5.95703 0.108507,3.47222 4.225089,14.76064 6.144426,15.67669 1.696397,0.80965 4.580911,1.65698 5.135811,-2.98311 h 1.529948 c 0,5.62066 -1.485096,8.87046 -6.861071,8.15889 -3.831844,-0.50719 -7.262048,-13.15933 -7.479062,-18.54128 -3.667535,5.38195 -8.344184,8.07292 -14.029947,8.07292 -2.669271,0 -4.871962,-0.96571 -6.608073,-2.89713 -1.736111,-1.93143 -2.604167,-4.40539 -2.604167,-7.42188 0,-3.32031 1.041667,-6.73828 3.125,-10.2539 2.105035,-3.51563 4.513889,-6.141498 7.226562,-7.877609 2.734375,-1.757812 5.327691,-2.636718 7.779948,-2.636718 2.864583,0 4.568142,2.115885 5.110677,6.347656 z m -8.456313,17.880602 c 0,-4.253469 -1.106771,-6.380204 -3.320313,-6.380204 -2.408854,0 -4.915364,2.473958 -7.519531,7.421874 -2.604167,4.92621 -3.90625,9.34245 -3.90625,13.2487 0,3.34201 0.922309,5.01302 2.766927,5.01302 0.976563,0 1.985677,-0.66189 3.027344,-1.98568 1.063368,-1.34549 2.571614,-4.04731 4.524739,-8.10547 z"
           style="font-style:italic;font-variant:normal;font-weight:bold;font-stretch:normal;font-family:'Times New Roman';-inkscape-font-specification:'Times New Roman, Bold Italic';fill:#808080"
           id="path71371"
           inkscape:connector-curvature="0"
           sodipodi:nodetypes="ccccsccscscsccscccscssccc" />
      </g>
      <g
         aria-label="K"
         transform="matrix(0.26458333,0,-0.0317194,0.26458333,31.380114,34.637743)"
         style="font-style:normal;font-variant:normal;font-weight:900;font-stretch:normal;font-size:66.66666412px;line-height:1.25;font-family:Orbitron;-inkscape-font-specification:'Orbitron Heavy';letter-spacing:0px;word-spacing:0px;fill:#808080;fill-opacity:1;stroke:none"
         id="g71377">
        <path
           d="m 324.76341,71.692708 -15.08548,15.818264 h -9.4 l 3.35215,-15.818264 h -18.4 l -9.6,48.000002 h 18.4 l 3.35785,-14.88925 12.34165,0.0892 9.43383,14.8 h 16.8 l 0.73333,-3.6 c -4.26666,-6.66667 -8.8,-13.66667 -13.06666,-20.400003 l 21.2,-20.399999 0.73333,-3.6 z"
           style="font-style:italic;fill:#808080"
           id="path71375"
           inkscape:connector-curvature="0"
           sodipodi:nodetypes="cccccccccccccccc" />
      </g>
    </g>
  </g>
  <g
     inkscape:label="bg"
     inkscape:groupmode="layer"
     id="layer1"
     transform="translate(0,-164.70832)"
     style="display:inline">
    <rect
       style="fill:#4b0052;fill-opacity:1;stroke-width:0.28371838"
       id="rect71192"
       width="211.66667"
       height="132.29167"
       x="-2.5431316e-06"
       y="164.70831" />
  </g>
  <g
     inkscape:groupmode="layer"
     id="layer2"
     inkscape:label="Lettering"
     transform="translate(0,-79.375)"
     sodipodi:insensitive="true"
     style="display:none">
    <g
       id="g71266">
      <g
         transform="matrix(1.3275895,0,0,1.3275895,-2.0134458,62.302257)"
         id="g74927">
        <path
           inkscape:connector-curvature="0"
           id="path74892"
           style="font-style:italic;font-variant:normal;font-weight:900;font-stretch:normal;font-size:106.66667175px;line-height:1.25;font-family:Orbitron;-inkscape-font-specification:'Orbitron Heavy';letter-spacing:0px;word-spacing:0px;fill:#ffcc00;fill-opacity:1;stroke:none;stroke-width:0.26458332"
           d="m 44.634313,53.869991 c -2.314223,0 -4.543779,1.862667 -5.023556,4.17689 l -3.217333,16.143113 h 4.374443 l 1.298223,-6.547556 h 11.514667 l -1.298223,6.547556 h 4.43089 l 3.217333,-16.143113 c 0.479779,-2.314223 -1.044221,-4.17689 -3.358444,-4.17689 z m -1.665112,9.36978 0.987779,-4.967113 h 11.514667 l -0.98778,4.967113 z" />
        <path
           inkscape:connector-curvature="0"
           id="path74894"
           style="font-style:italic;font-variant:normal;font-weight:900;font-stretch:normal;font-size:106.66667175px;line-height:1.25;font-family:Orbitron;-inkscape-font-specification:'Orbitron Heavy';letter-spacing:0px;word-spacing:0px;fill:#ffcc00;fill-opacity:1;stroke:none;stroke-width:0.26458332"
           d="m 64.162328,52.430658 -3.527779,17.667113 c -0.451554,2.229556 1.044223,4.092223 3.273779,4.092223 h 3.556 l 0.874887,-4.318 h -3.302 l 3.471333,-17.441336 z" />
        <path
           inkscape:connector-curvature="0"
           id="path74896"
           style="font-style:italic;font-variant:normal;font-weight:900;font-stretch:normal;font-size:106.66667175px;line-height:1.25;font-family:Orbitron;-inkscape-font-specification:'Orbitron Heavy';letter-spacing:0px;word-spacing:0px;fill:#ffcc00;fill-opacity:1;stroke:none;stroke-width:0.26458332"
           d="M 85.184796,57.821104 H 72.682353 l -4.572,22.86 h 4.318 l 1.298223,-6.49111 h 8.184444 c 2.257777,0 4.45911,-1.862667 4.910666,-4.092223 l 1.63689,-8.184444 c 0.451556,-2.229556 -1.016,-4.092223 -3.27378,-4.092223 z m -9.059333,4.318 h 7.958667 l -1.524,7.73289 h -7.958667 z" />
        <path
           inkscape:connector-curvature="0"
           id="path74898"
           style="font-style:italic;font-variant:normal;font-weight:900;font-stretch:normal;font-size:106.66667175px;line-height:1.25;font-family:Orbitron;-inkscape-font-specification:'Orbitron Heavy';letter-spacing:0px;word-spacing:0px;fill:#ffcc00;fill-opacity:1;stroke:none;stroke-width:0.26458332"
           d="m 103.92611,57.821104 h -8.184439 l 1.072444,-5.362223 h -4.318 l -4.346223,21.731113 h 4.318 l 2.39889,-12.05089 h 7.958668 l -2.39889,12.05089 h 4.318 l 2.45533,-12.276667 c 0.45156,-2.229556 -1.04422,-4.092223 -3.27378,-4.092223 z" />
        <path
           inkscape:connector-curvature="0"
           id="path74900"
           style="font-style:italic;font-variant:normal;font-weight:900;font-stretch:normal;font-size:106.66667175px;line-height:1.25;font-family:Orbitron;-inkscape-font-specification:'Orbitron Heavy';letter-spacing:0px;word-spacing:0px;fill:#ffcc00;fill-opacity:1;stroke:none;stroke-width:0.26458332"
           d="m 122.72124,57.821104 h -12.50245 l -0.87489,4.318 h 12.27667 l -0.33867,1.693334 h -12.27666 l -1.24178,6.265333 c -0.45156,2.229556 1.016,4.092223 3.27378,4.092223 h 12.50244 l 2.45534,-12.276667 c 0.45155,-2.229556 -1.016,-4.092223 -3.27378,-4.092223 z m -2.62467,12.05089 h -7.95867 l 0.45156,-2.25778 h 7.95867 z" />
      </g>
      <g
         id="g71241">
        <path
           inkscape:connector-curvature="0"
           id="path74902"
           style="font-style:italic;font-variant:normal;font-weight:900;font-stretch:normal;font-size:106.66667175px;line-height:1.25;font-family:Orbitron;-inkscape-font-specification:'Orbitron Heavy';letter-spacing:0px;word-spacing:0px;fill:#ffffff;fill-opacity:1;stroke:none;stroke-width:0.19531244"
           d="m 142.43714,121.61496 -3.77083,3.64583 c -0.77084,0.75 -1.54167,1.5 -2.3125,2.22917 h -2.9375 l 1.16667,-5.875 h -3.25 l -3,15 h 3.25 l 1.16666,-5.875 h 2.93751 l 3.75,5.875 h 3.375 l 0.22915,-1.12501 c -1.33332,-2.08333 -2.74998,-4.27083 -4.08332,-6.37499 l 6.62499,-6.375 0.22917,-1.125 z" />
        <path
           inkscape:connector-curvature="0"
           id="path74904"
           style="font-style:italic;font-variant:normal;font-weight:900;font-stretch:normal;font-size:106.66667175px;line-height:1.25;font-family:Orbitron;-inkscape-font-specification:'Orbitron Heavy';letter-spacing:0px;word-spacing:0px;fill:#ffffff;fill-opacity:1;stroke:none;stroke-width:0.18262982"
           d="m 144.65745,136.61496 h 2.98052 l 2.25974,-11.29871 h -2.98052 z m 3.00001,-15 -0.6039,3 h 2.98052 l 0.60389,-3 z" />
        <path
           inkscape:connector-curvature="0"
           id="path74906"
           style="font-style:italic;font-variant:normal;font-weight:900;font-stretch:normal;font-size:106.66667175px;line-height:1.25;font-family:Orbitron;-inkscape-font-specification:'Orbitron Heavy';letter-spacing:0px;word-spacing:0px;fill:#ffffff;fill-opacity:1;stroke:none;stroke-width:0.1870013"
           d="m 158.47714,128.09767 0.61835,-3.05186 h -4.28856 l 0.67819,-3.43085 h -3.05186 l -2.41356,12.10771 c -0.31915,1.5758 0.71809,2.89229 2.33377,2.89229 h 4.4282 l 0.61834,-3.05187 h -4.28856 l 1.07713,-5.46542 z" />
      </g>
      <g
         id="flowRoot74955"
         style="font-style:normal;font-variant:normal;font-weight:900;font-stretch:normal;font-size:66.66666412px;line-height:1.25;font-family:Orbitron;-inkscape-font-specification:'Orbitron Heavy';letter-spacing:0px;word-spacing:0px;fill:#000000;fill-opacity:1;stroke:none"
         transform="matrix(0.23965216,0,0,0.23965216,66.831199,78.632399)"
         aria-label="PHP UTILITIES">
        <path
           inkscape:connector-curvature="0"
           id="path75047"
           style="font-style:italic;font-variant:normal;font-weight:900;font-stretch:normal;font-size:26.66666794px;font-family:Orbitron;-inkscape-font-specification:'Orbitron Heavy';letter-spacing:3px;fill:#ffffff"
           d="m 143.26497,359.68539 -3.84,19.17333 h 4.13334 l 1.22666,-6.16 c 0.0267,0.0267 0.08,0.0267 0.08,0.0267 0.0267,-0.10667 0,-0.16 -0.0533,-0.16 l 11.09333,-0.0267 c 2.18667,0 4.34667,-1.78667 4.77334,-3.94667 l 0.98667,-4.96 c 0.42666,-2.16 -0.98667,-3.94666 -3.17334,-3.94666 z m 3.30667,4.13333 h 10.88 l -0.90667,4.56 h -10.88 z" />
        <path
           inkscape:connector-curvature="0"
           id="path75049"
           style="font-style:italic;font-variant:normal;font-weight:900;font-stretch:normal;font-size:26.66666794px;font-family:Orbitron;-inkscape-font-specification:'Orbitron Heavy';letter-spacing:3px;fill:#ffffff"
           d="m 182.85206,359.65872 -1.49333,7.52 h -11.33334 l 1.49334,-7.52 h -4.13334 l -3.84,19.2 h 4.13334 l 1.49333,-7.52 h 11.33333 l -1.49333,7.52 h 4.13333 l 3.84,-19.2 z" />
        <path
           inkscape:connector-curvature="0"
           id="path75051"
           style="font-style:italic;font-variant:normal;font-weight:900;font-stretch:normal;font-size:26.66666794px;font-family:Orbitron;-inkscape-font-specification:'Orbitron Heavy';letter-spacing:3px;fill:#ffffff"
           d="m 193.06706,359.68539 -3.84,19.17333 h 4.13333 l 1.22667,-6.16 c 0.0267,0.0267 0.08,0.0267 0.08,0.0267 0.0267,-0.10667 0,-0.16 -0.0533,-0.16 l 11.09333,-0.0267 c 2.18667,0 4.34667,-1.78667 4.77333,-3.94667 l 0.98667,-4.96 c 0.42667,-2.16 -0.98667,-3.94666 -3.17333,-3.94666 z m 3.30667,4.13333 h 10.88 l -0.90667,4.56 h -10.88 z" />
        <path
           inkscape:connector-curvature="0"
           id="path75053"
           style="font-style:italic;font-variant:normal;font-weight:900;font-stretch:normal;font-size:26.66666794px;font-family:Orbitron;-inkscape-font-specification:'Orbitron Heavy';letter-spacing:3px;fill:#ffffff"
           d="m 232.83456,359.65872 h -4.13333 l -3.04,15.25333 c -0.45334,2.18667 0.96,3.94667 3.14666,3.94667 h 11.30667 c 2.16,0 4.29333,-1.76 4.74667,-3.94667 l 3.04,-15.25333 h -4.18667 l -3.01333,15.04 h -10.88 z" />
        <path
           inkscape:connector-curvature="0"
           id="path75055"
           style="font-style:italic;font-variant:normal;font-weight:900;font-stretch:normal;font-size:26.66666794px;font-family:Orbitron;-inkscape-font-specification:'Orbitron Heavy';letter-spacing:3px;fill:#ffffff"
           d="m 252.8779,359.65872 -0.82667,4.16 h 7.52 l -3.01333,15.04 h 4.16 l 3.01333,-15.04 h 7.52 l 0.82667,-4.16 z" />
        <path
           inkscape:connector-curvature="0"
           id="path75057"
           style="font-style:italic;font-variant:normal;font-weight:900;font-stretch:normal;font-size:26.66666794px;font-family:Orbitron;-inkscape-font-specification:'Orbitron Heavy';letter-spacing:3px;fill:#ffffff"
           d="m 273.28498,378.85872 h 4.16 l 3.84,-19.2 h -4.16 z" />
        <path
           inkscape:connector-curvature="0"
           id="path75059"
           style="font-style:italic;font-variant:normal;font-weight:900;font-stretch:normal;font-size:26.66666794px;font-family:Orbitron;-inkscape-font-specification:'Orbitron Heavy';letter-spacing:3px;fill:#ffffff"
           d="m 282.17039,378.85872 h 19.2 l 0.82667,-4.16 h -15.06667 l 3.01333,-15.06667 h -4.13333 z" />
        <path
           inkscape:connector-curvature="0"
           id="path75061"
           style="font-style:italic;font-variant:normal;font-weight:900;font-stretch:normal;font-size:26.66666794px;font-family:Orbitron;-inkscape-font-specification:'Orbitron Heavy';letter-spacing:3px;fill:#ffffff"
           d="m 305.95166,378.85872 h 4.16 l 3.84,-19.2 h -4.16 z" />
        <path
           inkscape:connector-curvature="0"
           id="path75063"
           style="font-style:italic;font-variant:normal;font-weight:900;font-stretch:normal;font-size:26.66666794px;font-family:Orbitron;-inkscape-font-specification:'Orbitron Heavy';letter-spacing:3px;fill:#ffffff"
           d="m 318.21124,359.65872 -0.82667,4.16 h 7.52 l -3.01333,15.04 h 4.16 l 3.01333,-15.04 h 7.52 l 0.82667,-4.16 z" />
        <path
           inkscape:connector-curvature="0"
           id="path75065"
           style="font-style:italic;font-variant:normal;font-weight:900;font-stretch:normal;font-size:26.66666794px;font-family:Orbitron;-inkscape-font-specification:'Orbitron Heavy';letter-spacing:3px;fill:#ffffff"
           d="m 338.61831,378.85872 h 4.16 l 3.84,-19.2 h -4.16 z" />
        <path
           inkscape:connector-curvature="0"
           id="path75067"
           style="font-style:italic;font-variant:normal;font-weight:900;font-stretch:normal;font-size:26.66666794px;font-family:Orbitron;-inkscape-font-specification:'Orbitron Heavy';letter-spacing:3px;fill:#ffffff"
           d="M 369.10374,359.65872 H 351.3704 l -3.84,19.2 h 17.73334 l 0.82666,-4.16 h -13.54667 l 0.66667,-3.36 h 10.90667 l 0.85333,-4.16 h -10.90667 l 0.66667,-3.36 h 13.54667 z" />
        <path
           inkscape:connector-curvature="0"
           id="path75069"
           style="font-style:italic;font-variant:normal;font-weight:900;font-stretch:normal;font-size:26.66666794px;font-family:Orbitron;-inkscape-font-specification:'Orbitron Heavy';letter-spacing:3px;fill:#ffffff"
           d="m 393.00041,363.60539 c 0.45333,-2.18667 -0.98667,-3.94667 -3.14667,-3.94667 h -11.30667 c -2.18666,0 -4.29333,1.76 -4.74666,3.94667 l -0.74667,3.78666 c -0.42667,2.18667 0.96,3.94667 3.14667,3.94667 h 11.06666 l -0.66666,3.36 h -10.88 l 0.32,-1.57333 h -4.13334 l -0.34666,1.78666 c -0.45334,2.18667 0.96,3.94667 3.14666,3.94667 h 11.30667 c 2.16,0 4.29333,-1.76 4.74667,-3.94667 l 0.74666,-3.78666 c 0.42667,-2.18667 -0.98666,-3.94667 -3.14666,-3.94667 h -11.12 l 0.66666,-3.36 h 10.88 l -0.32,1.57333 h 4.18667 z" />
      </g>
    </g>
  </g>
  <g
     style="display:inline"
     transform="translate(0,-79.375)"
     inkscape:label="Lettering Small"
     id="g71431"
     inkscape:groupmode="layer"
     sodipodi:insensitive="true" />
  <g
     inkscape:groupmode="layer"
     id="layer3"
     inkscape:label="alpha-pict"
     style="display:inline"
     sodipodi:insensitive="true">
    <g
       transform="matrix(0.78052505,0,-0.10081133,0.78052505,74.668129,20.616881)"
       id="g71393"
       style="fill:#00ff00">
      <path
         inkscape:connector-curvature="0"
         id="path71383"
         style="font-style:italic;font-variant:normal;font-weight:900;font-stretch:normal;font-size:106.66667175px;line-height:1.25;font-family:Orbitron;-inkscape-font-specification:'Orbitron Heavy';letter-spacing:0px;word-spacing:0px;fill:#00ff00;fill-opacity:1;stroke:none;stroke-width:0.26458332"
         d="m 44.634313,53.869991 c -2.314223,0 -4.543779,1.862667 -5.023556,4.17689 l -3.217333,16.143113 h 4.374443 l 1.298223,-6.547556 h 11.514667 l -1.298223,6.547556 h 4.43089 l 3.217333,-16.143113 c 0.479779,-2.314223 -1.044221,-4.17689 -3.358444,-4.17689 z m -1.665112,9.36978 0.987779,-4.967113 h 11.514667 l -0.98778,4.967113 z" />
      <path
         inkscape:connector-curvature="0"
         id="path71385"
         style="font-style:italic;font-variant:normal;font-weight:900;font-stretch:normal;font-size:106.66667175px;line-height:1.25;font-family:Orbitron;-inkscape-font-specification:'Orbitron Heavy';letter-spacing:0px;word-spacing:0px;fill:#00ff00;fill-opacity:1;stroke:none;stroke-width:0.26458332"
         d="m 64.162328,52.430658 -3.527779,17.667113 c -0.451554,2.229556 1.044223,4.092223 3.273779,4.092223 h 3.556 l 0.874887,-4.318 h -3.302 l 3.471333,-17.441336 z" />
      <path
         inkscape:connector-curvature="0"
         id="path71387"
         style="font-style:italic;font-variant:normal;font-weight:900;font-stretch:normal;font-size:106.66667175px;line-height:1.25;font-family:Orbitron;-inkscape-font-specification:'Orbitron Heavy';letter-spacing:0px;word-spacing:0px;fill:#00ff00;fill-opacity:1;stroke:none;stroke-width:0.26458332"
         d="M 85.184796,57.821104 H 72.682353 l -4.572,22.86 h 4.318 l 1.298223,-6.49111 h 8.184444 c 2.257777,0 4.45911,-1.862667 4.910666,-4.092223 l 1.63689,-8.184444 c 0.451556,-2.229556 -1.016,-4.092223 -3.27378,-4.092223 z m -9.059333,4.318 h 7.958667 l -1.524,7.73289 h -7.958667 z" />
      <path
         inkscape:connector-curvature="0"
         id="path71389"
         style="font-style:italic;font-variant:normal;font-weight:900;font-stretch:normal;font-size:106.66667175px;line-height:1.25;font-family:Orbitron;-inkscape-font-specification:'Orbitron Heavy';letter-spacing:0px;word-spacing:0px;fill:#00ff00;fill-opacity:1;stroke:none;stroke-width:0.26458332"
         d="m 103.92611,57.821104 h -8.184439 l 1.072444,-5.362223 h -4.318 l -4.346223,21.731113 h 4.318 l 2.39889,-12.05089 h 7.958668 l -2.39889,12.05089 h 4.318 l 2.45533,-12.276667 c 0.45156,-2.229556 -1.04422,-4.092223 -3.27378,-4.092223 z" />
      <path
         inkscape:connector-curvature="0"
         id="path71391"
         style="font-style:italic;font-variant:normal;font-weight:900;font-stretch:normal;font-size:106.66667175px;line-height:1.25;font-family:Orbitron;-inkscape-font-specification:'Orbitron Heavy';letter-spacing:0px;word-spacing:0px;fill:#00ff00;fill-opacity:1;stroke:none;stroke-width:0.26458332"
         d="m 122.72124,57.821104 h -12.50245 l -0.87489,4.318 h 12.27667 l -0.33867,1.693334 h -12.27666 l -1.24178,6.265333 c -0.45156,2.229556 1.016,4.092223 3.27378,4.092223 h 12.50244 l 2.45534,-12.276667 c 0.45155,-2.229556 -1.016,-4.092223 -3.27378,-4.092223 z m -2.62467,12.05089 h -7.95867 l 0.45156,-2.25778 h 7.95867 z" />
    </g>
    <g
       id="g71401"
       transform="matrix(0.5879265,0,-0.07593562,0.5879265,80.582848,-16.012267)"
       style="fill:#d45500">
      <path
         inkscape:connector-curvature="0"
         id="path71395"
         style="font-style:italic;font-variant:normal;font-weight:900;font-stretch:normal;font-size:106.66667175px;line-height:1.25;font-family:Orbitron;-inkscape-font-specification:'Orbitron Heavy';letter-spacing:0px;word-spacing:0px;fill:#d45500;fill-opacity:1;stroke:none;stroke-width:0.19531244"
         d="m 142.43714,121.61496 -3.77083,3.64583 c -0.77084,0.75 -1.54167,1.5 -2.3125,2.22917 h -2.9375 l 1.16667,-5.875 h -3.25 l -3,15 h 3.25 l 1.16666,-5.875 h 2.93751 l 3.75,5.875 h 3.375 l 0.22915,-1.12501 c -1.33332,-2.08333 -2.74998,-4.27083 -4.08332,-6.37499 l 6.62499,-6.375 0.22917,-1.125 z" />
      <path
         inkscape:connector-curvature="0"
         id="path71397"
         style="font-style:italic;font-variant:normal;font-weight:900;font-stretch:normal;font-size:106.66667175px;line-height:1.25;font-family:Orbitron;-inkscape-font-specification:'Orbitron Heavy';letter-spacing:0px;word-spacing:0px;fill:#d45500;fill-opacity:1;stroke:none;stroke-width:0.18262982"
         d="m 144.65745,136.61496 h 2.98052 l 2.25974,-11.29871 h -2.98052 z m 3.00001,-15 -0.6039,3 h 2.98052 l 0.60389,-3 z" />
      <path
         inkscape:connector-curvature="0"
         id="path71399"
         style="font-style:italic;font-variant:normal;font-weight:900;font-stretch:normal;font-size:106.66667175px;line-height:1.25;font-family:Orbitron;-inkscape-font-specification:'Orbitron Heavy';letter-spacing:0px;word-spacing:0px;fill:#d45500;fill-opacity:1;stroke:none;stroke-width:0.1870013"
         d="m 158.47714,128.09767 0.61835,-3.05186 h -4.28856 l 0.67819,-3.43085 h -3.05186 l -2.41356,12.10771 c -0.31915,1.5758 0.71809,2.89229 2.33377,2.89229 h 4.4282 l 0.61834,-3.05187 h -4.28856 l 1.07713,-5.46542 z" />
    </g>
    <g
       id="g71427"
       style="font-style:normal;font-variant:normal;font-weight:900;font-stretch:normal;font-size:66.66666412px;line-height:1.25;font-family:Orbitron;-inkscape-font-specification:'Orbitron Heavy';letter-spacing:0px;word-spacing:0px;fill:#d45500;fill-opacity:1;stroke:none"
       transform="matrix(0.14089786,0,-0.01819814,0.14089786,113.90368,30.217804)"
       aria-label="PHP UTILITIES">
      <path
         inkscape:connector-curvature="0"
         id="path71403"
         style="font-style:italic;font-variant:normal;font-weight:900;font-stretch:normal;font-size:26.66666794px;font-family:Orbitron;-inkscape-font-specification:'Orbitron Heavy';letter-spacing:3px;fill:#d45500"
         d="m 143.26497,359.68539 -3.84,19.17333 h 4.13334 l 1.22666,-6.16 c 0.0267,0.0267 0.08,0.0267 0.08,0.0267 0.0267,-0.10667 0,-0.16 -0.0533,-0.16 l 11.09333,-0.0267 c 2.18667,0 4.34667,-1.78667 4.77334,-3.94667 l 0.98667,-4.96 c 0.42666,-2.16 -0.98667,-3.94666 -3.17334,-3.94666 z m 3.30667,4.13333 h 10.88 l -0.90667,4.56 h -10.88 z" />
      <path
         inkscape:connector-curvature="0"
         id="path71405"
         style="font-style:italic;font-variant:normal;font-weight:900;font-stretch:normal;font-size:26.66666794px;font-family:Orbitron;-inkscape-font-specification:'Orbitron Heavy';letter-spacing:3px;fill:#d45500"
         d="m 182.85206,359.65872 -1.49333,7.52 h -11.33334 l 1.49334,-7.52 h -4.13334 l -3.84,19.2 h 4.13334 l 1.49333,-7.52 h 11.33333 l -1.49333,7.52 h 4.13333 l 3.84,-19.2 z" />
      <path
         inkscape:connector-curvature="0"
         id="path71407"
         style="font-style:italic;font-variant:normal;font-weight:900;font-stretch:normal;font-size:26.66666794px;font-family:Orbitron;-inkscape-font-specification:'Orbitron Heavy';letter-spacing:3px;fill:#d45500"
         d="m 193.06706,359.68539 -3.84,19.17333 h 4.13333 l 1.22667,-6.16 c 0.0267,0.0267 0.08,0.0267 0.08,0.0267 0.0267,-0.10667 0,-0.16 -0.0533,-0.16 l 11.09333,-0.0267 c 2.18667,0 4.34667,-1.78667 4.77333,-3.94667 l 0.98667,-4.96 c 0.42667,-2.16 -0.98667,-3.94666 -3.17333,-3.94666 z m 3.30667,4.13333 h 10.88 l -0.90667,4.56 h -10.88 z" />
      <path
         inkscape:connector-curvature="0"
         id="path71409"
         style="font-style:italic;font-variant:normal;font-weight:900;font-stretch:normal;font-size:26.66666794px;font-family:Orbitron;-inkscape-font-specification:'Orbitron Heavy';letter-spacing:3px;fill:#d45500"
         d="m 232.83456,359.65872 h -4.13333 l -3.04,15.25333 c -0.45334,2.18667 0.96,3.94667 3.14666,3.94667 h 11.30667 c 2.16,0 4.29333,-1.76 4.74667,-3.94667 l 3.04,-15.25333 h -4.18667 l -3.01333,15.04 h -10.88 z" />
      <path
         inkscape:connector-curvature="0"
         id="path71411"
         style="font-style:italic;font-variant:normal;font-weight:900;font-stretch:normal;font-size:26.66666794px;font-family:Orbitron;-inkscape-font-specification:'Orbitron Heavy';letter-spacing:3px;fill:#d45500"
         d="m 252.8779,359.65872 -0.82667,4.16 h 7.52 l -3.01333,15.04 h 4.16 l 3.01333,-15.04 h 7.52 l 0.82667,-4.16 z" />
      <path
         inkscape:connector-curvature="0"
         id="path71413"
         style="font-style:italic;font-variant:normal;font-weight:900;font-stretch:normal;font-size:26.66666794px;font-family:Orbitron;-inkscape-font-specification:'Orbitron Heavy';letter-spacing:3px;fill:#d45500"
         d="m 273.28498,378.85872 h 4.16 l 3.84,-19.2 h -4.16 z" />
      <path
         inkscape:connector-curvature="0"
         id="path71415"
         style="font-style:italic;font-variant:normal;font-weight:900;font-stretch:normal;font-size:26.66666794px;font-family:Orbitron;-inkscape-font-specification:'Orbitron Heavy';letter-spacing:3px;fill:#d45500"
         d="m 282.17039,378.85872 h 19.2 l 0.82667,-4.16 h -15.06667 l 3.01333,-15.06667 h -4.13333 z" />
      <path
         inkscape:connector-curvature="0"
         id="path71417"
         style="font-style:italic;font-variant:normal;font-weight:900;font-stretch:normal;font-size:26.66666794px;font-family:Orbitron;-inkscape-font-specification:'Orbitron Heavy';letter-spacing:3px;fill:#d45500"
         d="m 305.95166,378.85872 h 4.16 l 3.84,-19.2 h -4.16 z" />
      <path
         inkscape:connector-curvature="0"
         id="path71419"
         style="font-style:italic;font-variant:normal;font-weight:900;font-stretch:normal;font-size:26.66666794px;font-family:Orbitron;-inkscape-font-specification:'Orbitron Heavy';letter-spacing:3px;fill:#d45500"
         d="m 318.21124,359.65872 -0.82667,4.16 h 7.52 l -3.01333,15.04 h 4.16 l 3.01333,-15.04 h 7.52 l 0.82667,-4.16 z" />
      <path
         inkscape:connector-curvature="0"
         id="path71421"
         style="font-style:italic;font-variant:normal;font-weight:900;font-stretch:normal;font-size:26.66666794px;font-family:Orbitron;-inkscape-font-specification:'Orbitron Heavy';letter-spacing:3px;fill:#d45500"
         d="m 338.61831,378.85872 h 4.16 l 3.84,-19.2 h -4.16 z" />
      <path
         inkscape:connector-curvature="0"
         id="path71423"
         style="font-style:italic;font-variant:normal;font-weight:900;font-stretch:normal;font-size:26.66666794px;font-family:Orbitron;-inkscape-font-specification:'Orbitron Heavy';letter-spacing:3px;fill:#d45500"
         d="M 369.10374,359.65872 H 351.3704 l -3.84,19.2 h 17.73334 l 0.82666,-4.16 h -13.54667 l 0.66667,-3.36 h 10.90667 l 0.85333,-4.16 h -10.90667 l 0.66667,-3.36 h 13.54667 z" />
      <path
         inkscape:connector-curvature="0"
         id="path71425"
         style="font-style:italic;font-variant:normal;font-weight:900;font-stretch:normal;font-size:26.66666794px;font-family:Orbitron;-inkscape-font-specification:'Orbitron Heavy';letter-spacing:3px;fill:#d45500"
         d="m 393.00041,363.60539 c 0.45333,-2.18667 -0.98667,-3.94667 -3.14667,-3.94667 h -11.30667 c -2.18666,0 -4.29333,1.76 -4.74666,3.94667 l -0.74667,3.78666 c -0.42667,2.18667 0.96,3.94667 3.14667,3.94667 h 11.06666 l -0.66666,3.36 h -10.88 l 0.32,-1.57333 h -4.13334 l -0.34666,1.78666 c -0.45334,2.18667 0.96,3.94667 3.14666,3.94667 h 11.30667 c 2.16,0 4.29333,-1.76 4.74667,-3.94667 l 0.74666,-3.78666 c 0.42667,-2.18667 -0.98666,-3.94667 -3.14666,-3.94667 h -11.12 l 0.66666,-3.36 h 10.88 l -0.32,1.57333 h 4.18667 z" />
    </g>
    <g
       aria-label="α"
       transform="matrix(1.200539,-0.15736014,0.15736014,1.200539,-38.404656,-51.305654)"
       style="font-style:normal;font-variant:normal;font-weight:bold;font-stretch:normal;font-size:66.66666412px;line-height:1.25;font-family:sans-serif;-inkscape-font-specification:'sans-serif Bold';letter-spacing:0px;word-spacing:0px;fill:#ff00cc;fill-opacity:1;stroke:none"
       id="flowRoot71199">
      <path
         d="m 91.728448,84.866788 7.793412,1.021518 -10.357799,22.197634 c -1.128472,2.47395 -2.126736,4.45963 -2.994791,5.95703 0.108507,3.47222 4.225089,14.76064 6.144426,15.67669 1.696397,0.80965 4.580911,1.65698 5.135811,-2.98311 h 1.529948 c 0,5.62066 -1.485096,8.87046 -6.861071,8.15889 -3.831844,-0.50719 -7.262048,-13.15933 -7.479062,-18.54128 -3.667535,5.38195 -8.344184,8.07292 -14.029947,8.07292 -2.669271,0 -4.871962,-0.96571 -6.608073,-2.89713 -1.736111,-1.93143 -2.604167,-4.40539 -2.604167,-7.42188 0,-3.32031 1.041667,-6.73828 3.125,-10.2539 2.105035,-3.51563 4.513889,-6.141498 7.226562,-7.877609 2.734375,-1.757812 5.327691,-2.636718 7.779948,-2.636718 2.864583,0 4.568142,2.115885 5.110677,6.347656 z m -8.456313,17.880602 c 0,-4.253469 -1.106771,-6.380204 -3.320313,-6.380204 -2.408854,0 -4.915364,2.473958 -7.519531,7.421874 -2.604167,4.92621 -3.90625,9.34245 -3.90625,13.2487 0,3.34201 0.922309,5.01302 2.766927,5.01302 0.976563,0 1.985677,-0.66189 3.027344,-1.98568 1.063368,-1.34549 2.571614,-4.04731 4.524739,-8.10547 z"
         style="font-style:italic;font-variant:normal;font-weight:bold;font-stretch:normal;font-family:'Times New Roman';-inkscape-font-specification:'Times New Roman, Bold Italic';fill:#ff00cc"
         id="path71207"
         inkscape:connector-curvature="0"
         sodipodi:nodetypes="ccccsccscscsccscccscssccc" />
    </g>
    <g
       aria-label="K"
       transform="matrix(0.42250574,0,-0.05065182,0.42250574,-18.783326,5.9037247)"
       style="font-style:normal;font-variant:normal;font-weight:900;font-stretch:normal;font-size:66.66666412px;line-height:1.25;font-family:Orbitron;-inkscape-font-specification:'Orbitron Heavy';letter-spacing:0px;word-spacing:0px;fill:#ff00cc;fill-opacity:1;stroke:none"
       id="flowRoot71308">
      <path
         d="m 324.76341,71.692708 -15.08548,15.818264 h -9.4 l 3.35215,-15.818264 h -18.4 l -9.6,48.000002 h 18.4 l 3.35785,-14.88925 12.34165,0.0892 9.43383,14.8 h 16.8 l 0.73333,-3.6 c -4.26666,-6.66667 -8.8,-13.66667 -13.06666,-20.400003 l 21.2,-20.399999 0.73333,-3.6 z"
         style="font-style:italic;fill:#ff00cc"
         id="path71316"
         inkscape:connector-curvature="0"
         sodipodi:nodetypes="cccccccccccccccc" />
    </g>
    <g
       id="g71323"
       style="font-style:normal;font-variant:normal;font-weight:bold;font-stretch:normal;font-size:66.66666412px;line-height:1.25;font-family:sans-serif;-inkscape-font-specification:'sans-serif Bold';letter-spacing:0px;word-spacing:0px;fill:#00ff00;fill-opacity:1;stroke:none"
       transform="matrix(1.200539,-0.15736014,0.15736014,1.200539,-38.404656,-51.305654)"
       aria-label="α">
      <path
         sodipodi:nodetypes="ccccsccscscsccscccscssccc"
         inkscape:connector-curvature="0"
         id="path71321"
         style="font-style:italic;font-variant:normal;font-weight:bold;font-stretch:normal;font-family:'Times New Roman';-inkscape-font-specification:'Times New Roman, Bold Italic';fill:#00ff00"
         d="m 91.728448,84.866788 7.793412,1.021518 -10.357799,22.197634 c -1.128472,2.47395 -2.126736,4.45963 -2.994791,5.95703 0.108507,3.47222 4.225089,14.76064 6.144426,15.67669 1.696397,0.80965 4.580911,1.65698 5.135811,-2.98311 h 1.529948 c 0,5.62066 -1.485096,8.87046 -6.861071,8.15889 -3.831844,-0.50719 -7.262048,-13.15933 -7.479062,-18.54128 -3.667535,5.38195 -8.344184,8.07292 -14.029947,8.07292 -2.669271,0 -4.871962,-0.96571 -6.608073,-2.89713 -1.736111,-1.93143 -2.604167,-4.40539 -2.604167,-7.42188 0,-3.32031 1.041667,-6.73828 3.125,-10.2539 2.105035,-3.51563 4.513889,-6.141498 7.226562,-7.877609 2.734375,-1.757812 5.327691,-2.636718 7.779948,-2.636718 2.864583,0 4.568142,2.115885 5.110677,6.347656 z m -8.456313,17.880602 c 0,-4.253469 -1.106771,-6.380204 -3.320313,-6.380204 -2.408854,0 -4.915364,2.473958 -7.519531,7.421874 -2.604167,4.92621 -3.90625,9.34245 -3.90625,13.2487 0,3.34201 0.922309,5.01302 2.766927,5.01302 0.976563,0 1.985677,-0.66189 3.027344,-1.98568 1.063368,-1.34549 2.571614,-4.04731 4.524739,-8.10547 z" />
    </g>
    <g
       id="g71327"
       style="font-style:normal;font-variant:normal;font-weight:900;font-stretch:normal;font-size:66.66666412px;line-height:1.25;font-family:Orbitron;-inkscape-font-specification:'Orbitron Heavy';letter-spacing:0px;word-spacing:0px;fill:#d45500;fill-opacity:1;stroke:none"
       transform="matrix(0.42250574,0,-0.05065182,0.42250574,-18.783326,5.9037247)"
       aria-label="K">
      <path
         sodipodi:nodetypes="cccccccccccccccc"
         inkscape:connector-curvature="0"
         id="path71325"
         style="font-style:italic;fill:#d45500"
         d="m 324.76341,71.692708 -15.08548,15.818264 h -9.4 l 3.35215,-15.818264 h -18.4 l -9.6,48.000002 h 18.4 l 3.35785,-14.88925 12.34165,0.0892 9.43383,14.8 h 16.8 l 0.73333,-3.6 c -4.26666,-6.66667 -8.8,-13.66667 -13.06666,-20.400003 l 21.2,-20.399999 0.73333,-3.6 z" />
    </g>
  </g>
</svg>
