<?xml version="1.0" encoding="UTF-8" standalone="no"?>
<!-- Created with Inkscape (http://www.inkscape.org/) -->

<svg
   xmlns:dc="http://purl.org/dc/elements/1.1/"
   xmlns:cc="http://creativecommons.org/ns#"
   xmlns:rdf="http://www.w3.org/1999/02/22-rdf-syntax-ns#"
   xmlns:svg="http://www.w3.org/2000/svg"
   xmlns="http://www.w3.org/2000/svg"
   xmlns:sodipodi="http://sodipodi.sourceforge.net/DTD/sodipodi-0.dtd"
   xmlns:inkscape="http://www.inkscape.org/namespaces/inkscape"
   width="320"
   height="320"
   viewBox="0 0 84.666664 84.666669"
   version="1.1"
   id="svg8"
   inkscape:version="0.92.2 5c3e80d, 2017-08-06"
   sodipodi:docname="alphakit-pict-white.svg">
  <defs
     id="defs2" />
  <sodipodi:namedview
     id="base"
     pagecolor="#ffffff"
     bordercolor="#666666"
     borderopacity="1.0"
     inkscape:pageopacity="0.0"
     inkscape:pageshadow="2"
     inkscape:zoom="1.6652365"
     inkscape:cx="251.07221"
     inkscape:cy="250"
     inkscape:document-units="px"
     inkscape:current-layer="layer3"
     showgrid="false"
     units="px"
     inkscape:window-width="2573"
     inkscape:window-height="1401"
     inkscape:window-x="0"
     inkscape:window-y="0"
     inkscape:window-maximized="0"
     showguides="true"
     inkscape:guide-bbox="true" />
  <metadata
     id="metadata5">
    <rdf:RDF>
      <cc:Work
         rdf:about="">
        <dc:format>image/svg+xml</dc:format>
        <dc:type
           rdf:resource="http://purl.org/dc/dcmitype/StillImage" />
        <dc:title></dc:title>
      </cc:Work>
    </rdf:RDF>
  </metadata>
  <g
     inkscape:label="bg"
     inkscape:groupmode="layer"
     id="layer1"
     transform="translate(0,-212.33332)"
     style="display:inline" />
  <g
     inkscape:groupmode="layer"
     id="layer3"
     inkscape:label="alpha-pict"
     style="display:inline"
     transform="translate(0,-47.625)">
    <g
       id="g71351"
       transform="matrix(1.5968721,0,0,1.5968721,-19.583751,32.227936)">
      <g
         id="flowRoot71199"
         style="font-style:normal;font-variant:normal;font-weight:bold;font-stretch:normal;font-size:66.66666412px;line-height:1.25;font-family:sans-serif;-inkscape-font-specification:'sans-serif Bold';letter-spacing:0px;word-spacing:0px;fill:#000000;fill-opacity:1;stroke:none"
         transform="matrix(0.75180661,-0.09854273,0.09854273,0.75180661,-40.597578,-37.398794)"
         aria-label="α">
        <path
           sodipodi:nodetypes="ccccsccscscsccscccscssccc"
           inkscape:connector-curvature="0"
           id="path71207"
           style="font-style:italic;font-variant:normal;font-weight:bold;font-stretch:normal;font-family:'Times New Roman';-inkscape-font-specification:'Times New Roman, Bold Italic';fill:#ffffff"
           d="m 91.728448,84.866788 7.793412,1.021518 -10.357799,22.197634 c -1.128472,2.47395 -2.126736,4.45963 -2.994791,5.95703 0.108507,3.47222 4.225089,14.76064 6.144426,15.67669 1.696397,0.80965 4.580911,1.65698 5.135811,-2.98311 h 1.529948 c 0,5.62066 -1.485096,8.87046 -6.861071,8.15889 -3.831844,-0.50719 -7.262048,-13.15933 -7.479062,-18.54128 -3.667535,5.38195 -8.344184,8.07292 -14.029947,8.07292 -2.669271,0 -4.871962,-0.96571 -6.608073,-2.89713 -1.736111,-1.93143 -2.604167,-4.40539 -2.604167,-7.42188 0,-3.32031 1.041667,-6.73828 3.125,-10.2539 2.105035,-3.51563 4.513889,-6.141498 7.226562,-7.877609 2.734375,-1.757812 5.327691,-2.636718 7.779948,-2.636718 2.864583,0 4.568142,2.115885 5.110677,6.347656 z m -8.456313,17.880602 c 0,-4.253469 -1.106771,-6.380204 -3.320313,-6.380204 -2.408854,0 -4.915364,2.473958 -7.519531,7.421874 -2.604167,4.92621 -3.90625,9.34245 -3.90625,13.2487 0,3.34201 0.922309,5.01302 2.766927,5.01302 0.976563,0 1.985677,-0.66189 3.027344,-1.98568 1.063368,-1.34549 2.571614,-4.04731 4.524739,-8.10547 z" />
      </g>
      <g
         id="flowRoot71308"
         style="font-style:normal;font-variant:normal;font-weight:900;font-stretch:normal;font-size:66.66666412px;line-height:1.25;font-family:Orbitron;-inkscape-font-specification:'Orbitron Heavy';letter-spacing:0px;word-spacing:0px;fill:#000000;fill-opacity:1;stroke:none"
         transform="matrix(0.26458333,0,-0.0317194,0.26458333,-28.310226,-1.5728948)"
         aria-label="K">
        <path
           sodipodi:nodetypes="cccccccccccccccc"
           inkscape:connector-curvature="0"
           id="path71316"
           style="font-style:italic;fill:#ffffff"
           d="m 324.76341,71.692708 -15.08548,15.818264 h -9.4 l 3.35215,-15.818264 h -18.4 l -9.6,48.000002 h 18.4 l 3.35785,-14.88925 12.34165,0.0892 9.43383,14.8 h 16.8 l 0.73333,-3.6 c -4.26666,-6.66667 -8.8,-13.66667 -13.06666,-20.400003 l 21.2,-20.399999 0.73333,-3.6 z" />
      </g>
      <g
         aria-label="α"
         transform="matrix(0.75180661,-0.09854273,0.09854273,0.75180661,-40.597578,-37.398794)"
         style="font-style:normal;font-variant:normal;font-weight:bold;font-stretch:normal;font-size:66.66666412px;line-height:1.25;font-family:sans-serif;-inkscape-font-specification:'sans-serif Bold';letter-spacing:0px;word-spacing:0px;fill:#000000;fill-opacity:1;stroke:none"
         id="g71323">
        <path
           d="m 91.728448,84.866788 7.793412,1.021518 -10.357799,22.197634 c -1.128472,2.47395 -2.126736,4.45963 -2.994791,5.95703 0.108507,3.47222 4.225089,14.76064 6.144426,15.67669 1.696397,0.80965 4.580911,1.65698 5.135811,-2.98311 h 1.529948 c 0,5.62066 -1.485096,8.87046 -6.861071,8.15889 -3.831844,-0.50719 -7.262048,-13.15933 -7.479062,-18.54128 -3.667535,5.38195 -8.344184,8.07292 -14.029947,8.07292 -2.669271,0 -4.871962,-0.96571 -6.608073,-2.89713 -1.736111,-1.93143 -2.604167,-4.40539 -2.604167,-7.42188 0,-3.32031 1.041667,-6.73828 3.125,-10.2539 2.105035,-3.51563 4.513889,-6.141498 7.226562,-7.877609 2.734375,-1.757812 5.327691,-2.636718 7.779948,-2.636718 2.864583,0 4.568142,2.115885 5.110677,6.347656 z m -8.456313,17.880602 c 0,-4.253469 -1.106771,-6.380204 -3.320313,-6.380204 -2.408854,0 -4.915364,2.473958 -7.519531,7.421874 -2.604167,4.92621 -3.90625,9.34245 -3.90625,13.2487 0,3.34201 0.922309,5.01302 2.766927,5.01302 0.976563,0 1.985677,-0.66189 3.027344,-1.98568 1.063368,-1.34549 2.571614,-4.04731 4.524739,-8.10547 z"
           style="font-style:italic;font-variant:normal;font-weight:bold;font-stretch:normal;font-family:'Times New Roman';-inkscape-font-specification:'Times New Roman, Bold Italic';fill:#ffffff"
           id="path71321"
           inkscape:connector-curvature="0"
           sodipodi:nodetypes="ccccsccscscsccscccscssccc" />
      </g>
      <g
         aria-label="K"
         transform="matrix(0.26458333,0,-0.0317194,0.26458333,-28.310226,-1.5728948)"
         style="font-style:normal;font-variant:normal;font-weight:900;font-stretch:normal;font-size:66.66666412px;line-height:1.25;font-family:Orbitron;-inkscape-font-specification:'Orbitron Heavy';letter-spacing:0px;word-spacing:0px;fill:#000000;fill-opacity:1;stroke:none"
         id="g71327">
        <path
           d="m 324.76341,71.692708 -15.08548,15.818264 h -9.4 l 3.35215,-15.818264 h -18.4 l -9.6,48.000002 h 18.4 l 3.35785,-14.88925 12.34165,0.0892 9.43383,14.8 h 16.8 l 0.73333,-3.6 c -4.26666,-6.66667 -8.8,-13.66667 -13.06666,-20.400003 l 21.2,-20.399999 0.73333,-3.6 z"
           style="font-style:italic;fill:#ffffff"
           id="path71325"
           inkscape:connector-curvature="0"
           sodipodi:nodetypes="cccccccccccccccc" />
      </g>
    </g>
  </g>
</svg>
